<svg width="465" height="415" viewBox="0 0 465 415" fill="none" xmlns="http://www.w3.org/2000/svg">
<rect x="100" y="265" width="150" height="150" rx="15" fill="#E5E5E5"/>
<path d="M223.163 368.333L200.345 347.586C199.266 346.606 197.848 346.083 196.392 346.128C194.935 346.173 193.552 346.782 192.536 347.827L179.103 361.642C175.87 361.025 169.37 358.998 162.679 352.324C155.987 345.627 153.961 339.11 153.36 335.899L167.164 322.461C168.21 321.445 168.82 320.063 168.866 318.605C168.911 317.148 168.387 315.73 167.405 314.652L146.664 291.839C145.682 290.758 144.317 290.102 142.859 290.011C141.401 289.92 139.965 290.401 138.855 291.351L126.674 301.798C125.704 302.772 125.125 304.068 125.046 305.441C124.962 306.844 123.357 340.087 149.134 365.874C171.621 388.356 199.789 390.001 207.546 390.001C208.68 390.001 209.376 389.967 209.562 389.956C210.934 389.879 212.23 389.297 213.199 388.322L223.64 376.136C224.594 375.03 225.079 373.595 224.99 372.137C224.9 370.679 224.245 369.314 223.163 368.333V368.333Z" fill="black"/>
<path d="M223.163 368.333L200.345 347.586C199.266 346.606 197.848 346.083 196.392 346.128C194.935 346.173 193.552 346.782 192.536 347.827L179.103 361.642C175.87 361.025 169.37 358.998 162.679 352.324C155.987 345.627 153.961 339.11 153.36 335.899L167.164 322.461C168.21 321.445 168.82 320.063 168.866 318.605C168.911 317.148 168.387 315.73 167.405 314.652L146.664 291.839C145.682 290.758 144.317 290.102 142.859 290.011C141.401 289.92 139.965 290.401 138.855 291.351L126.674 301.798C125.704 302.772 125.125 304.068 125.046 305.441C124.962 306.844 123.357 340.087 149.134 365.874C171.621 388.356 199.789 390.001 207.546 390.001C208.68 390.001 209.376 389.967 209.562 389.956C210.934 389.879 212.23 389.297 213.199 388.322L223.64 376.136C224.594 375.03 225.079 373.595 224.99 372.137C224.9 370.679 224.245 369.314 223.163 368.333V368.333Z" fill="url(#paint0_linear_17_54)"/>
<rect x="265" y="133" width="200" height="200" rx="15" fill="#E5E5E5"/>
<path d="M314.5 270H327V295.506L358.881 270H389.5C396.394 270 402 264.394 402 257.5V207.5C402 200.606 396.394 195 389.5 195H314.5C307.606 195 302 200.606 302 207.5V257.5C302 264.394 307.606 270 314.5 270Z" fill="black"/>
<path d="M314.5 270H327V295.506L358.881 270H389.5C396.394 270 402 264.394 402 257.5V207.5C402 200.606 396.394 195 389.5 195H314.5C307.606 195 302 200.606 302 207.5V257.5C302 264.394 307.606 270 314.5 270Z" fill="url(#paint1_linear_17_54)"/>
<path d="M414.5 170H339.5C332.606 170 327 175.606 327 182.5H402C408.894 182.5 414.5 188.106 414.5 195V245C421.394 245 427 239.394 427 232.5V182.5C427 175.606 421.394 170 414.5 170Z" fill="url(#paint2_linear_17_54)"/>
<rect width="250" height="250" rx="15" fill="#E5E5E5"/>
<path d="M86.3156 88.0282L72.4151 74.3074L26 122.5L72.4351 170.693L86.2557 156.912L53.0222 122.5L86.3156 88.0282Z" fill="white"/>
<path d="M86.3156 88.0282L72.4151 74.3074L26 122.5L72.4351 170.693L86.2557 156.912L53.0222 122.5L86.3156 88.0282Z" fill="url(#paint3_linear_17_54)"/>
<path d="M194.704 122.5L161.471 156.912L175.291 170.693L221.726 122.5L175.291 74.3074L161.411 88.0282L194.704 122.5Z" fill="white"/>
<path d="M194.704 122.5L161.471 156.912L175.291 170.693L221.726 122.5L175.291 74.3074L161.411 88.0282L194.704 122.5Z" fill="url(#paint4_linear_17_54)"/>
<path d="M131.353 51L153.102 56.8318L116.374 194L94.624 188.168L131.353 51Z" fill="white"/>
<path d="M131.353 51L153.102 56.8318L116.374 194L94.624 188.168L131.353 51Z" fill="url(#paint5_linear_17_54)"/>
<defs>
<linearGradient id="paint0_linear_17_54" x1="225" y1="290" x2="105.339" y2="327.861" gradientUnits="userSpaceOnUse">
<stop stop-color="#83D0CB"/>
<stop offset="1" stop-color="#145277"/>
</linearGradient>
<linearGradient id="paint1_linear_17_54" x1="466.5" y1="133.5" x2="226.424" y2="206.117" gradientUnits="userSpaceOnUse">
<stop stop-color="#83D0CB"/>
<stop offset="1" stop-color="#145277"/>
</linearGradient>
<linearGradient id="paint2_linear_17_54" x1="465" y1="133.5" x2="229.881" y2="274.395" gradientUnits="userSpaceOnUse">
<stop stop-color="#83D0CB"/>
<stop offset="1" stop-color="#145277"/>
</linearGradient>
<linearGradient id="paint3_linear_17_54" x1="250.5" y1="1.99997" x2="10.1706" y2="-7.09314" gradientUnits="userSpaceOnUse">
<stop stop-color="#83D0CB"/>
<stop offset="1" stop-color="#145277"/>
</linearGradient>
<linearGradient id="paint4_linear_17_54" x1="248" y1="0.499985" x2="6.14368" y2="-6.21708" gradientUnits="userSpaceOnUse">
<stop stop-color="#83D0CB"/>
<stop offset="1" stop-color="#145277"/>
</linearGradient>
<linearGradient id="paint5_linear_17_54" x1="249" y1="-0.499991" x2="80.7317" y2="-45.5357" gradientUnits="userSpaceOnUse">
<stop stop-color="#83D0CB"/>
<stop offset="1" stop-color="#145277"/>
</linearGradient>
</defs>
</svg>
